<svg width="20" height="18" viewBox="0 0 20 18" fill="none" xmlns="http://www.w3.org/2000/svg">
<path d="M9.84545 5.68421L12.7273 8.67789C12.7273 8.63053 12.7273 8.57368 12.7273 8.52632C12.7273 7.77254 12.4399 7.04964 11.9285 6.51664C11.417 5.98365 10.7233 5.68421 10 5.68421C9.94545 5.68421 9.9 5.68421 9.84545 5.68421ZM5.93636 6.44211L7.34545 7.91053C7.3 8.10947 7.27273 8.30842 7.27273 8.52632C7.27273 9.28009 7.56006 10.003 8.07153 10.536C8.58299 11.069 9.27668 11.3684 10 11.3684C10.2 11.3684 10.4 11.34 10.5909 11.2926L12 12.7611C11.3909 13.0737 10.7182 13.2632 10 13.2632C8.79447 13.2632 7.63832 12.7641 6.78588 11.8758C5.93344 10.9874 5.45455 9.7826 5.45455 8.52632C5.45455 7.77789 5.63636 7.07684 5.93636 6.44211ZM0.909091 1.20316L2.98182 3.36316L3.39091 3.78947C1.89091 5.02105 0.709091 6.63158 0 8.52632C1.57273 12.6853 5.45455 15.6316 10 15.6316C11.4091 15.6316 12.7545 15.3474 13.9818 14.8358L14.3727 15.2337L17.0273 18L18.1818 16.7968L2.06364 0M10 3.78947C11.2055 3.78947 12.3617 4.28853 13.2141 5.17686C14.0666 6.06519 14.5455 7.27003 14.5455 8.52632C14.5455 9.13263 14.4273 9.72 14.2182 10.2505L16.8818 13.0263C18.2455 11.8421 19.3364 10.2884 20 8.52632C18.4273 4.36737 14.5455 1.42105 10 1.42105C8.72727 1.42105 7.50909 1.65789 6.36364 2.08421L8.33636 4.12105C8.85455 3.91263 9.40909 3.78947 10 3.78947Z" fill="#868686"/>
</svg>
