<svg width="20" height="14" viewBox="0 0 20 14" fill="none" xmlns="http://www.w3.org/2000/svg">
<path d="M10 0C5.45455 0 1.57273 2.85083 0 6.875C1.57273 10.8992 5.45455 13.75 10 13.75C14.5455 13.75 18.4273 10.8992 20 6.875C18.4273 2.85083 14.5455 0 10 0ZM10 11.4583C7.49091 11.4583 5.45455 9.405 5.45455 6.875C5.45455 4.345 7.49091 2.29167 10 2.29167C12.5091 2.29167 14.5455 4.345 14.5455 6.875C14.5455 9.405 12.5091 11.4583 10 11.4583ZM10 4.125C8.49091 4.125 7.27273 5.35333 7.27273 6.875C7.27273 8.39667 8.49091 9.625 10 9.625C11.5091 9.625 12.7273 8.39667 12.7273 6.875C12.7273 5.35333 11.5091 4.125 10 4.125Z" fill="#868686"/>
</svg>
